<?xml version="1.0" ?><!DOCTYPE svg  PUBLIC '-//W3C//DTD SVG 1.1//EN'  'http://www.w3.org/Graphics/SVG/1.1/DTD/svg11.dtd'><svg enable-background="new 0 0 140 140" id="Layer_17" version="1.1" viewBox="0 0 140 140" xml:space="preserve" xmlns="http://www.w3.org/2000/svg" xmlns:xlink="http://www.w3.org/1999/xlink"><g><defs><filter filterUnits="userSpaceOnUse" height="97.071106" id="Adobe_OpacityMaskFilter" width="97.0710449" x="42.9289551" y="42.928894"><feColorMatrix type="matrix" values="1 0 0 0 0  0 1 0 0 0  0 0 1 0 0  0 0 0 1 0"/></filter></defs><mask height="97.071106" id="SVGID_1_" maskUnits="userSpaceOnUse" width="97.0710449" x="42.9289551" y="42.928894"><g filter="url(#Adobe_OpacityMaskFilter)"><radialGradient cx="70" cy="70" gradientTransform="matrix(0.7071068 0.7071068 -0.2721382 0.2721382 39.5522003 1.4528493)" gradientUnits="userSpaceOnUse" id="SVGID_2_" r="106.5634918"><stop offset="0.3" style="stop-color:#FFFFFF"/><stop offset="0.85" style="stop-color:#FFFFFF;stop-opacity:0"/></radialGradient><rect fill="url(#SVGID_2_)" height="140" width="140"/></g></mask><linearGradient gradientUnits="userSpaceOnUse" id="SVGID_3_" x1="69.9999847" x2="140.0000153" y1="69.9999542" y2="139.9999847"><stop offset="0" style="stop-color:#000000;stop-opacity:0.4"/><stop offset="0.8" style="stop-color:#000000;stop-opacity:0"/></linearGradient><polygon fill="url(#SVGID_3_)" mask="url(#SVGID_1_)" points="140,85.8580933    97.0710449,42.928894 42.9289551,97.0710449 85.8580933,140 140,140  "/><defs><filter filterUnits="userSpaceOnUse" height="97.071106" id="Adobe_OpacityMaskFilter_1_" width="97.0710449" x="42.9289551" y="42.928894"><feColorMatrix type="matrix" values="1 0 0 0 0  0 1 0 0 0  0 0 1 0 0  0 0 0 1 0"/></filter></defs><mask height="97.071106" id="SVGID_4_" maskUnits="userSpaceOnUse" width="97.0710449" x="42.9289551" y="42.928894"><g filter="url(#Adobe_OpacityMaskFilter_1_)"><radialGradient cx="70" cy="70" gradientTransform="matrix(0.7071068 0.7071068 -0.3889087 0.3889087 47.7261353 -6.7210855)" gradientUnits="userSpaceOnUse" id="SVGID_5_" r="79.5565872"><stop offset="0.3" style="stop-color:#FFFFFF"/><stop offset="0.85" style="stop-color:#FFFFFF;stop-opacity:0"/></radialGradient><rect fill="url(#SVGID_5_)" height="140" width="140"/></g></mask><linearGradient gradientUnits="userSpaceOnUse" id="SVGID_6_" x1="69.9999847" x2="140.0000153" y1="69.9999542" y2="139.9999847"><stop offset="0" style="stop-color:#4867AA;stop-opacity:0.6"/><stop offset="0.5" style="stop-color:#4867AA;stop-opacity:0"/></linearGradient><polygon fill="url(#SVGID_6_)" mask="url(#SVGID_4_)" points="140,85.8580933    97.0710449,42.928894 42.9289551,97.0710449 85.8580933,140 140,140  "/><path d="M90,100H50c-5.5228462,0-10-4.47715-10-10V50c0-5.5228462,4.4771538-10,10-10h40   c5.52285,0,10,4.4771538,10,10v40C100,95.52285,95.52285,100,90,100z" fill="#4867AA"/><g><defs><path d="M90,41c4.9626236,0,9,4.0373802,9,9v40c0,4.9626236-4.0373764,9-9,9H50c-4.9626198,0-9-4.0373764-9-9V50     c0-4.9626198,4.0373802-9,9-9H90 M90,40H50c-5.52285,0-10,4.47715-10,10v40c0,5.52285,4.47715,10,10,10h40     c5.52285,0,10-4.47715,10-10V50C100,44.47715,95.52285,40,90,40L90,40z" id="SVGID_45_"/></defs><clipPath id="SVGID_8_"><use overflow="visible" xlink:href="#SVGID_45_"/></clipPath><linearGradient gradientUnits="userSpaceOnUse" id="SVGID_10_" x1="20" x2="120" y1="20" y2="120"><stop offset="0" style="stop-color:#FFFFFF;stop-opacity:0.8"/><stop offset="0.6" style="stop-color:#FFFFFF;stop-opacity:0"/></linearGradient><rect clip-path="url(#SVGID_8_)" fill="url(#SVGID_10_)" height="100" width="100" x="20" y="20"/></g><g><defs><path d="M90,41c4.9626236,0,9,4.0373802,9,9v40c0,4.9626236-4.0373764,9-9,9H50c-4.9626198,0-9-4.0373764-9-9V50     c0-4.9626198,4.0373802-9,9-9H90 M90,40H50c-5.52285,0-10,4.47715-10,10v40c0,5.52285,4.47715,10,10,10h40     c5.52285,0,10-4.47715,10-10V50C100,44.47715,95.52285,40,90,40L90,40z" id="SVGID_48_"/></defs><clipPath id="SVGID_11_"><use overflow="visible" xlink:href="#SVGID_48_"/></clipPath><linearGradient gradientUnits="userSpaceOnUse" id="SVGID_13_" x1="20" x2="120" y1="20" y2="120"><stop offset="0.4" style="stop-color:#000000;stop-opacity:0"/><stop offset="1" style="stop-color:#000000;stop-opacity:0.2"/></linearGradient><rect clip-path="url(#SVGID_11_)" fill="url(#SVGID_13_)" height="100" width="100" x="20" y="20"/></g><g><defs><path d="M50,99c-4.9624023,0-9-4.0375977-9-9V50c0-4.9624023,4.0375977-9,9-9h40c4.9624023,0,9,4.0375977,9,9v40     c0,4.9624023-4.0375977,9-9,9H50z" id="SVGID_51_"/></defs><clipPath id="SVGID_14_"><use overflow="visible" xlink:href="#SVGID_51_"/></clipPath><radialGradient cx="45" cy="45" gradientUnits="userSpaceOnUse" id="SVGID_16_" r="45"><stop offset="0" style="stop-color:#FFFFFF;stop-opacity:0.2"/><stop offset="1" style="stop-color:#FFFFFF;stop-opacity:0"/></radialGradient><circle clip-path="url(#SVGID_14_)" cx="45" cy="45" fill="url(#SVGID_16_)" r="45"/></g><g><defs><path d="M90,99.1499023H50c-5.0454102,0-9.1499023-4.1044922-9.1499023-9.1499023V50     c0-5.0454102,4.1044922-9.1499023,9.1499023-9.1499023h40c5.0454102,0,9.1499023,4.1044922,9.1499023,9.1499023v40     C99.1499023,95.0454102,95.0454102,99.1499023,90,99.1499023z M50,41.1499023     c-4.8798828,0-8.8500977,3.9702148-8.8500977,8.8500977v40c0,4.8798828,3.9702148,8.8500977,8.8500977,8.8500977h40     c4.8798828,0,8.8500977-3.9702148,8.8500977-8.8500977V50c0-4.8798828-3.9702148-8.8500977-8.8500977-8.8500977H50z" id="SVGID_54_"/></defs><clipPath id="SVGID_17_"><use overflow="visible" xlink:href="#SVGID_54_"/></clipPath><linearGradient gradientUnits="userSpaceOnUse" id="SVGID_19_" x1="20" x2="120" y1="20" y2="120"><stop offset="0.2" style="stop-color:#FFFFFF;stop-opacity:0.8"/><stop offset="0.7" style="stop-color:#FFFFFF;stop-opacity:0"/></linearGradient><rect clip-path="url(#SVGID_17_)" fill="url(#SVGID_19_)" height="100" width="100" x="20" y="20"/></g><path d="M80.3703613,50L72.5,58.6666679L65.555542,90l10,10H90   c5.5228271,0,10-4.4771729,10-10V69.6296387L80.3703613,50z" opacity="0.12"/><path d="M72.9629593,90V72.2222214h5.9259262l1.4814835-7.4074097h-7.4074097v-2.9629593   c0-2.9629631,1.4844513-4.4444466,4.4444504-4.4444466h2.9629593V50c-1.4814835,0-3.3185196,0-5.9259262,0   C69,50,65.5555573,54.2681465,65.5555573,60.370369v4.4444427H59.629631v7.4074097h5.9259262V90H72.9629593z" fill="#FFFFFF" id="f"/><path d="M78.1874847,71.234375C77.578125,71.5625,72.5405579,71.2333298,72.2916641,71.5   C72,71.8125,72.375,88.6458359,71.9374847,89.0625C71.5,89.4791641,65.5555573,90,65.5555573,90h7.407402V72.2222214h5.9259262   l1.4814835-7.4074097C80.370369,64.8148117,78.796875,70.90625,78.1874847,71.234375z" fill="#4867AA" id="f_1_" opacity="0.4"/></g></svg>